<svg width="422" height="325" viewBox="0 0 422 325" fill="none" xmlns="http://www.w3.org/2000/svg">
<path d="M210.939 27.1489C218.436 27.1489 224.514 21.0714 224.514 13.5745C224.514 6.0775 218.436 0 210.939 0C203.442 0 197.365 6.0775 197.365 13.5745C197.365 21.0714 203.442 27.1489 210.939 27.1489Z" fill="#FAFAFA"/>
<path d="M210.939 71.2454C216.573 71.2454 221.141 66.6781 221.141 61.044C221.141 55.4099 216.573 50.8426 210.939 50.8426C205.305 50.8426 200.738 55.4099 200.738 61.044C200.738 66.6781 205.305 71.2454 210.939 71.2454Z" fill="#FAFAFA"/>
<path d="M210.939 106.786C214.665 106.786 217.685 103.765 217.685 100.04C217.685 96.3139 214.665 93.2936 210.939 93.2936C207.213 93.2936 204.193 96.3139 204.193 100.04C204.193 103.765 207.213 106.786 210.939 106.786Z" fill="#FAFAFA"/>
<path d="M252.156 31.5092C259.653 31.5092 265.73 25.4317 265.73 17.9348C265.73 10.4378 259.653 4.36029 252.156 4.36029C244.659 4.36029 238.582 10.4378 238.582 17.9348C238.582 25.4317 244.659 31.5092 252.156 31.5092Z" fill="#FAFAFA"/>
<path d="M242.284 74.5362C247.918 74.5362 252.485 69.9688 252.485 64.3348C252.485 58.7007 247.918 54.1333 242.284 54.1333C236.65 54.1333 232.083 58.7007 232.083 64.3348C232.083 69.9688 236.65 74.5362 242.284 74.5362Z" fill="#FAFAFA"/>
<path d="M234.221 109.254C237.947 109.254 240.967 106.234 240.967 102.508C240.967 98.782 237.947 95.7617 234.221 95.7617C230.495 95.7617 227.475 98.782 227.475 102.508C227.475 106.234 230.495 109.254 234.221 109.254Z" fill="#FAFAFA"/>
<path d="M291.646 44.261C299.143 44.261 305.22 38.1835 305.22 30.6865C305.22 23.1896 299.143 17.1121 291.646 17.1121C284.149 17.1121 278.071 23.1896 278.071 30.6865C278.071 38.1835 284.149 44.261 291.646 44.261Z" fill="#FAFAFA"/>
<path d="M272.312 84.3262C277.946 84.3262 282.514 79.7589 282.514 74.1248C282.514 68.4907 277.946 63.9234 272.312 63.9234C266.678 63.9234 262.111 68.4907 262.111 74.1248C262.111 79.7589 266.678 84.3262 272.312 84.3262Z" fill="#FAFAFA"/>
<path d="M256.434 116.494C260.16 116.494 263.18 113.473 263.18 109.748C263.18 106.022 260.16 103.001 256.434 103.001C252.708 103.001 249.688 106.022 249.688 109.748C249.688 113.473 252.708 116.494 256.434 116.494Z" fill="#FAFAFA"/>
<path d="M327.597 65.0752C335.094 65.0752 341.172 58.9977 341.172 51.5007C341.172 44.0037 335.094 37.9262 327.597 37.9262C320.1 37.9262 314.023 44.0037 314.023 51.5007C314.023 58.9977 320.1 65.0752 327.597 65.0752Z" fill="#FAFAFA"/>
<path d="M299.626 100.122C305.26 100.122 309.827 95.5546 309.827 89.9206C309.827 84.2865 305.26 79.7191 299.626 79.7191C293.992 79.7191 289.424 84.2865 289.424 89.9206C289.424 95.5546 293.992 100.122 299.626 100.122Z" fill="#FAFAFA"/>
<path d="M276.755 128.176C280.481 128.176 283.501 125.156 283.501 121.43C283.501 117.704 280.481 114.684 276.755 114.684C273.029 114.684 270.009 117.704 270.009 121.43C270.009 125.156 273.029 128.176 276.755 128.176Z" fill="#FAFAFA"/>
<path d="M358.449 92.8C365.945 92.8 372.023 86.7225 372.023 79.2255C372.023 71.7286 365.945 65.6511 358.449 65.6511C350.952 65.6511 344.874 71.7286 344.874 79.2255C344.874 86.7225 350.952 92.8 358.449 92.8Z" fill="#FAFAFA"/>
<path d="M323.155 121.183C328.789 121.183 333.356 116.616 333.356 110.982C333.356 105.347 328.789 100.78 323.155 100.78C317.52 100.78 312.953 105.347 312.953 110.982C312.953 116.616 317.52 121.183 323.155 121.183Z" fill="#FAFAFA"/>
<path d="M294.114 143.889C297.84 143.889 300.86 140.869 300.86 137.143C300.86 133.417 297.84 130.397 294.114 130.397C290.388 130.397 287.368 133.417 287.368 137.143C287.368 140.869 290.388 143.889 294.114 143.889Z" fill="#FAFAFA"/>
<path d="M382.8 126.366C390.297 126.366 396.375 120.288 396.375 112.791C396.375 105.295 390.297 99.217 382.8 99.217C375.303 99.217 369.226 105.295 369.226 112.791C369.226 120.288 375.303 126.366 382.8 126.366Z" fill="#FAFAFA"/>
<path d="M341.665 146.769C347.299 146.769 351.867 142.201 351.867 136.567C351.867 130.933 347.299 126.366 341.665 126.366C336.031 126.366 331.464 130.933 331.464 136.567C331.464 142.201 336.031 146.769 341.665 146.769Z" fill="#FAFAFA"/>
<path d="M307.853 162.811C311.578 162.811 314.599 159.791 314.599 156.065C314.599 152.339 311.578 149.319 307.853 149.319C304.127 149.319 301.106 152.339 301.106 156.065C301.106 159.791 304.127 162.811 307.853 162.811Z" fill="#FAFAFA"/>
<path d="M399.665 164.292C407.162 164.292 413.24 158.215 413.24 150.718C413.24 143.221 407.162 137.143 399.665 137.143C392.168 137.143 386.091 143.221 386.091 150.718C386.091 158.215 392.168 164.292 399.665 164.292Z" fill="#FAFAFA"/>
<path d="M354.499 175.563C360.133 175.563 364.701 170.996 364.701 165.362C364.701 159.728 360.133 155.16 354.499 155.16C348.865 155.16 344.298 159.728 344.298 165.362C344.298 170.996 348.865 175.563 354.499 175.563Z" fill="#FAFAFA"/>
<path d="M317.396 184.201C321.122 184.201 324.142 181.181 324.142 177.455C324.142 173.73 321.122 170.709 317.396 170.709C313.67 170.709 310.65 173.73 310.65 177.455C310.65 181.181 313.67 184.201 317.396 184.201Z" fill="#FAFAFA"/>
<path d="M408.304 204.851C415.801 204.851 421.878 198.774 421.878 191.277C421.878 183.78 415.801 177.702 408.304 177.702C400.807 177.702 394.729 183.78 394.729 191.277C394.729 198.774 400.807 204.851 408.304 204.851Z" fill="#FAFAFA"/>
<path d="M361.081 206.414C366.715 206.414 371.282 201.847 371.282 196.213C371.282 190.579 366.715 186.011 361.081 186.011C355.447 186.011 350.879 190.579 350.879 196.213C350.879 201.847 355.447 206.414 361.081 206.414Z" fill="#FAFAFA"/>
<path d="M322.25 207.072C325.976 207.072 328.996 204.052 328.996 200.326C328.996 196.6 325.976 193.58 322.25 193.58C318.524 193.58 315.504 196.6 315.504 200.326C315.504 204.052 318.524 207.072 322.25 207.072Z" fill="#FAFAFA"/>
<path d="M408.304 246.315C415.801 246.315 421.878 240.237 421.878 232.74C421.878 225.243 415.801 219.166 408.304 219.166C400.807 219.166 394.729 225.243 394.729 232.74C394.729 240.237 400.807 246.315 408.304 246.315Z" fill="#FAFAFA"/>
<path d="M361.081 238.006C366.715 238.006 371.282 233.438 371.282 227.804C371.282 222.17 366.715 217.603 361.081 217.603C355.447 217.603 350.879 222.17 350.879 227.804C350.879 233.438 355.447 238.006 361.081 238.006Z" fill="#FAFAFA"/>
<path d="M322.25 230.437C325.976 230.437 328.996 227.417 328.996 223.691C328.996 219.965 325.976 216.945 322.25 216.945C318.524 216.945 315.504 219.965 315.504 223.691C315.504 227.417 318.524 230.437 322.25 230.437Z" fill="#FAFAFA"/>
<path d="M399.665 286.956C407.162 286.956 413.24 280.878 413.24 273.382C413.24 265.885 407.162 259.807 399.665 259.807C392.168 259.807 386.091 265.885 386.091 273.382C386.091 280.878 392.168 286.956 399.665 286.956Z" fill="#FAFAFA"/>
<path d="M354.499 268.857C360.133 268.857 364.701 264.289 364.701 258.655C364.701 253.021 360.133 248.454 354.499 248.454C348.865 248.454 344.298 253.021 344.298 258.655C344.298 264.289 348.865 268.857 354.499 268.857Z" fill="#FAFAFA"/>
<path d="M317.396 253.39C321.122 253.39 324.142 250.37 324.142 246.644C324.142 242.918 321.122 239.898 317.396 239.898C313.67 239.898 310.65 242.918 310.65 246.644C310.65 250.37 313.67 253.39 317.396 253.39Z" fill="#FAFAFA"/>
<path d="M382.8 324.8C390.297 324.8 396.375 318.723 396.375 311.226C396.375 303.729 390.297 297.651 382.8 297.651C375.303 297.651 369.226 303.729 369.226 311.226C369.226 318.723 375.303 324.8 382.8 324.8Z" fill="#FAFAFA"/>
<path d="M341.665 297.733C347.299 297.733 351.867 293.166 351.867 287.532C351.867 281.898 347.299 277.331 341.665 277.331C336.031 277.331 331.464 281.898 331.464 287.532C331.464 293.166 336.031 297.733 341.665 297.733Z" fill="#FAFAFA"/>
<path d="M307.853 274.78C311.578 274.78 314.599 271.76 314.599 268.034C314.599 264.308 311.578 261.288 307.853 261.288C304.127 261.288 301.106 264.308 301.106 268.034C301.106 271.76 304.127 274.78 307.853 274.78Z" fill="#FAFAFA"/>
<path d="M169.64 31.5092C177.137 31.5092 183.214 25.4317 183.214 17.9348C183.214 10.4378 177.137 4.36029 169.64 4.36029C162.143 4.36029 156.065 10.4378 156.065 17.9348C156.065 25.4317 162.143 31.5092 169.64 31.5092Z" fill="#FAFAFA"/>
<path d="M179.512 74.5362C185.146 74.5362 189.713 69.9688 189.713 64.3348C189.713 58.7007 185.146 54.1333 179.512 54.1333C173.878 54.1333 169.311 58.7007 169.311 64.3348C169.311 69.9688 173.878 74.5362 179.512 74.5362Z" fill="#FAFAFA"/>
<path d="M187.657 109.254C191.383 109.254 194.403 106.234 194.403 102.508C194.403 98.782 191.383 95.7617 187.657 95.7617C183.931 95.7617 180.911 98.782 180.911 102.508C180.911 106.234 183.931 109.254 187.657 109.254Z" fill="#FAFAFA"/>
<path d="M130.233 44.261C137.73 44.261 143.807 38.1835 143.807 30.6865C143.807 23.1896 137.73 17.1121 130.233 17.1121C122.736 17.1121 116.658 23.1896 116.658 30.6865C116.658 38.1835 122.736 44.261 130.233 44.261Z" fill="#FAFAFA"/>
<path d="M149.566 84.3262C155.2 84.3262 159.768 79.7589 159.768 74.1248C159.768 68.4907 155.2 63.9234 149.566 63.9234C143.932 63.9234 139.365 68.4907 139.365 74.1248C139.365 79.7589 143.932 84.3262 149.566 84.3262Z" fill="#FAFAFA"/>
<path d="M165.362 116.494C169.088 116.494 172.108 113.473 172.108 109.748C172.108 106.022 169.088 103.001 165.362 103.001C161.636 103.001 158.616 106.022 158.616 109.748C158.616 113.473 161.636 116.494 165.362 116.494Z" fill="#FAFAFA"/>
<path d="M94.2808 65.0752C101.778 65.0752 107.855 58.9977 107.855 51.5007C107.855 44.0037 101.778 37.9262 94.2808 37.9262C86.7838 37.9262 80.7063 44.0037 80.7063 51.5007C80.7063 58.9977 86.7838 65.0752 94.2808 65.0752Z" fill="#FAFAFA"/>
<path d="M122.17 100.122C127.804 100.122 132.372 95.5546 132.372 89.9206C132.372 84.2865 127.804 79.7191 122.17 79.7191C116.536 79.7191 111.969 84.2865 111.969 89.9206C111.969 95.5546 116.536 100.122 122.17 100.122Z" fill="#FAFAFA"/>
<path d="M145.124 128.176C148.849 128.176 151.87 125.156 151.87 121.43C151.87 117.704 148.849 114.684 145.124 114.684C141.398 114.684 138.377 117.704 138.377 121.43C138.377 125.156 141.398 128.176 145.124 128.176Z" fill="#FAFAFA"/>
<path d="M63.4297 92.8C70.9267 92.8 77.0042 86.7225 77.0042 79.2255C77.0042 71.7286 70.9267 65.6511 63.4297 65.6511C55.9327 65.6511 49.8552 71.7286 49.8552 79.2255C49.8552 86.7225 55.9327 92.8 63.4297 92.8Z" fill="#FAFAFA"/>
<path d="M98.7234 121.183C104.357 121.183 108.925 116.616 108.925 110.982C108.925 105.347 104.357 100.78 98.7234 100.78C93.0893 100.78 88.522 105.347 88.522 110.982C88.522 116.616 93.0893 121.183 98.7234 121.183Z" fill="#FAFAFA"/>
<path d="M127.765 143.889C131.49 143.889 134.511 140.869 134.511 137.143C134.511 133.417 131.49 130.397 127.765 130.397C124.039 130.397 121.019 133.417 121.019 137.143C121.019 140.869 124.039 143.889 127.765 143.889Z" fill="#FAFAFA"/>
<path d="M39.0781 126.366C46.5751 126.366 52.6526 120.288 52.6526 112.791C52.6526 105.295 46.5751 99.217 39.0781 99.217C31.5812 99.217 25.5037 105.295 25.5037 112.791C25.5037 120.288 31.5812 126.366 39.0781 126.366Z" fill="#FAFAFA"/>
<path d="M80.2129 146.769C85.847 146.769 90.4143 142.201 90.4143 136.567C90.4143 130.933 85.847 126.366 80.2129 126.366C74.5788 126.366 70.0115 130.933 70.0115 136.567C70.0115 142.201 74.5788 146.769 80.2129 146.769Z" fill="#FAFAFA"/>
<path d="M114.026 162.811C117.751 162.811 120.772 159.791 120.772 156.065C120.772 152.339 117.751 149.319 114.026 149.319C110.3 149.319 107.28 152.339 107.28 156.065C107.28 159.791 110.3 162.811 114.026 162.811Z" fill="#FAFAFA"/>
<path d="M22.2127 164.292C29.7096 164.292 35.7871 158.215 35.7871 150.718C35.7871 143.221 29.7096 137.143 22.2127 137.143C14.7157 137.143 8.63818 143.221 8.63818 150.718C8.63818 158.215 14.7157 164.292 22.2127 164.292Z" fill="#FAFAFA"/>
<path d="M67.3787 175.563C73.0128 175.563 77.5801 170.996 77.5801 165.362C77.5801 159.728 73.0128 155.16 67.3787 155.16C61.7446 155.16 57.1772 159.728 57.1772 165.362C57.1772 170.996 61.7446 175.563 67.3787 175.563Z" fill="#FAFAFA"/>
<path d="M104.482 184.201C108.208 184.201 111.229 181.181 111.229 177.455C111.229 173.73 108.208 170.709 104.482 170.709C100.757 170.709 97.7363 173.73 97.7363 177.455C97.7363 181.181 100.757 184.201 104.482 184.201Z" fill="#FAFAFA"/>
<path d="M13.5745 204.851C21.0714 204.851 27.1489 198.774 27.1489 191.277C27.1489 183.78 21.0714 177.702 13.5745 177.702C6.0775 177.702 0 183.78 0 191.277C0 198.774 6.0775 204.851 13.5745 204.851Z" fill="#FAFAFA"/>
<path d="M60.7971 206.414C66.4312 206.414 70.9986 201.847 70.9986 196.213C70.9986 190.579 66.4312 186.011 60.7971 186.011C55.163 186.011 50.5957 190.579 50.5957 196.213C50.5957 201.847 55.163 206.414 60.7971 206.414Z" fill="#FAFAFA"/>
<path d="M99.6284 207.072C103.354 207.072 106.375 204.052 106.375 200.326C106.375 196.6 103.354 193.58 99.6284 193.58C95.9027 193.58 92.8823 196.6 92.8823 200.326C92.8823 204.052 95.9027 207.072 99.6284 207.072Z" fill="#FAFAFA"/>
<path d="M13.5745 246.315C21.0714 246.315 27.1489 240.237 27.1489 232.74C27.1489 225.243 21.0714 219.166 13.5745 219.166C6.0775 219.166 0 225.243 0 232.74C0 240.237 6.0775 246.315 13.5745 246.315Z" fill="#FAFAFA"/>
<path d="M60.7971 238.006C66.4312 238.006 70.9986 233.438 70.9986 227.804C70.9986 222.17 66.4312 217.603 60.7971 217.603C55.163 217.603 50.5957 222.17 50.5957 227.804C50.5957 233.438 55.163 238.006 60.7971 238.006Z" fill="#FAFAFA"/>
<path d="M99.6284 230.437C103.354 230.437 106.375 227.417 106.375 223.691C106.375 219.965 103.354 216.945 99.6284 216.945C95.9027 216.945 92.8823 219.965 92.8823 223.691C92.8823 227.417 95.9027 230.437 99.6284 230.437Z" fill="#FAFAFA"/>
<path d="M22.2127 286.956C29.7096 286.956 35.7871 280.878 35.7871 273.382C35.7871 265.885 29.7096 259.807 22.2127 259.807C14.7157 259.807 8.63818 265.885 8.63818 273.382C8.63818 280.878 14.7157 286.956 22.2127 286.956Z" fill="#FAFAFA"/>
<path d="M67.3787 268.857C73.0128 268.857 77.5801 264.289 77.5801 258.655C77.5801 253.021 73.0128 248.454 67.3787 248.454C61.7446 248.454 57.1772 253.021 57.1772 258.655C57.1772 264.289 61.7446 268.857 67.3787 268.857Z" fill="#FAFAFA"/>
<path d="M104.482 253.39C108.208 253.39 111.229 250.37 111.229 246.644C111.229 242.918 108.208 239.898 104.482 239.898C100.757 239.898 97.7363 242.918 97.7363 246.644C97.7363 250.37 100.757 253.39 104.482 253.39Z" fill="#FAFAFA"/>
<path d="M39.0781 324.8C46.5751 324.8 52.6526 318.723 52.6526 311.226C52.6526 303.729 46.5751 297.651 39.0781 297.651C31.5812 297.651 25.5037 303.729 25.5037 311.226C25.5037 318.723 31.5812 324.8 39.0781 324.8Z" fill="#FAFAFA"/>
<path d="M80.2129 297.733C85.847 297.733 90.4143 293.166 90.4143 287.532C90.4143 281.898 85.847 277.331 80.2129 277.331C74.5788 277.331 70.0115 281.898 70.0115 287.532C70.0115 293.166 74.5788 297.733 80.2129 297.733Z" fill="#FAFAFA"/>
<path d="M114.026 274.78C117.751 274.78 120.772 271.76 120.772 268.034C120.772 264.308 117.751 261.288 114.026 261.288C110.3 261.288 107.28 264.308 107.28 268.034C107.28 271.76 110.3 274.78 114.026 274.78Z" fill="#FAFAFA"/>
</svg>
