<svg width="87" height="33" viewBox="0 0 87 33" fill="none" xmlns="http://www.w3.org/2000/svg">
<path d="M0 12.0633C0 5.5046 5.76372 0 12.6051 0C19.4477 0 25.2108 5.5046 25.2108 12.0633C25.2108 18.6215 19.4477 24.1603 12.6051 24.1603C5.76372 24.1597 0 18.6215 0 12.0633ZM18.47 12.0633C18.47 8.76658 15.774 5.9807 12.6051 5.9807C9.43689 5.9807 6.74149 8.76658 6.74149 12.0633C6.74149 15.3931 9.43689 18.1796 12.6051 18.1796C15.7734 18.179 18.47 15.3931 18.47 12.0633Z" fill="#2F2F7E"/>
<path d="M41.796 32.5922L36.909 25.5586H34.8874V32.5922H28.3481V9.24808H39.4367C44.627 9.24808 48.3002 12.612 48.3002 17.4036C48.3002 20.734 46.5475 23.3496 43.7171 24.6747L49.2447 32.5922H41.796ZM34.8868 19.5785H38.8972C40.4477 19.5785 41.5593 18.6605 41.5593 17.4036C41.5593 16.1462 40.4477 15.2288 38.8972 15.2288H34.8868V19.5785Z" fill="#ED2954"/>
<path d="M58.5215 9.24808H51.9834V32.5922H58.5215V9.24808Z" fill="#ED2954"/>
<path d="M61.7896 20.9037C61.7896 14.3449 67.5533 8.84033 74.3953 8.84033C81.2367 8.84033 86.9998 14.3449 86.9998 20.9037C86.9998 27.4618 81.2367 33.0006 74.3953 33.0006C67.5527 33 61.7896 27.4618 61.7896 20.9037ZM80.2589 20.9037C80.2589 17.6069 77.5629 14.821 74.3953 14.821C71.2264 14.821 68.5304 17.6069 68.5304 20.9037C68.5304 24.2334 71.2264 27.0199 74.3953 27.0199C77.5629 27.0193 80.2589 24.2334 80.2589 20.9037Z" fill="#ED2954"/>
<path d="M24.1825 25.4932H1.02832V32.085H24.1825V25.4932Z" fill="#ED2954"/>
</svg>
