<svg width="202" height="76" viewBox="0 0 202 76" fill="none" xmlns="http://www.w3.org/2000/svg">
<g clip-path="url(#clip0_3_2)">
<path d="M0 27.7822C0 12.6773 13.3824 0 29.2671 0C45.1545 0 58.5355 12.6773 58.5355 27.7822C58.5355 42.8858 45.1545 55.6418 29.2671 55.6418C13.3824 55.6404 0 42.8858 0 27.7822ZM42.8843 27.7822C42.8843 20.1897 36.6246 13.7737 29.2671 13.7737C21.911 13.7737 15.6527 20.1897 15.6527 27.7822C15.6527 35.4507 21.911 41.8681 29.2671 41.8681C36.6232 41.8667 42.8843 35.4507 42.8843 27.7822Z" fill="white"/>
<path d="M97.0437 75.0609L85.6967 58.8622H81.003V75.0609H65.8199V21.2986H91.5656C103.617 21.2986 112.145 29.0458 112.145 40.0811C112.145 47.751 108.076 53.7748 101.504 56.8267L114.338 75.0609H97.0437ZM81.0016 45.0899H90.3131C93.9132 45.0899 96.4941 42.9756 96.4941 40.0811C96.4941 37.1852 93.9132 35.0724 90.3131 35.0724H81.0016V45.0899Z" fill="#ED2954"/>
<path d="M135.878 21.2986H120.697V75.0609H135.878V21.2986Z" fill="#ED2954"/>
<path d="M143.466 48.1418C143.466 33.0368 156.848 20.3596 172.734 20.3596C188.619 20.3596 202 33.0368 202 48.1418C202 63.2454 188.619 76.0014 172.734 76.0014C156.847 76 143.466 63.2454 143.466 48.1418ZM186.349 48.1418C186.349 40.5493 180.089 34.1333 172.734 34.1333C165.377 34.1333 159.117 40.5493 159.117 48.1418C159.117 55.8103 165.377 62.2276 172.734 62.2276C180.089 62.2263 186.349 55.8103 186.349 48.1418Z" fill="#ED2954"/>
<path d="M56.1479 58.7117H2.3876V73.8927H56.1479V58.7117Z" fill="#ED2954"/>
</g>
<defs>
<clipPath id="clip0_3_2">
<rect width="202" height="76" fill="white"/>
</clipPath>
</defs>
</svg>
