<svg width="66" height="85" viewBox="0 0 66 85" fill="none" xmlns="http://www.w3.org/2000/svg">
<g clip-path="url(#clip0_36_237)">
<path d="M1.47065 23.5793C2.03551 23.7027 2.56271 23.6953 4.17821 22.4572C5.21286 21.6663 6.13726 20.7424 6.92719 19.7099L7.35837 19.1488C11.0187 14.3163 19.597 2.99043 31.9674 3.60759C42.1763 4.34444 49.414 12.0047 52.8954 25.7525C53.0121 26.2163 53.0837 26.5005 53.1647 26.725C53.6937 28.9692 54.59 31.7745 55.8722 32.6965C56.2522 32.9753 56.7272 33.0947 57.1949 33.029C57.6627 32.9634 58.0858 32.7179 58.3731 32.3455C58.6604 31.9731 58.789 31.5034 58.7312 31.0378C58.6733 30.5721 58.4337 30.1476 58.0639 29.8557C57.7099 29.3993 57.0415 27.4861 56.6423 25.7749C56.6196 25.6734 56.5868 25.5744 56.5444 25.4794C56.5124 25.3597 56.4465 25.1054 56.3862 24.8754C55.8383 22.6985 54.3716 16.9121 50.8167 11.4642C46.2301 4.43608 39.9658 0.585367 32.2084 0.0336616H32.1689C17.8704 -0.695711 8.48243 11.7036 4.4757 16.9981L4.05394 17.5592C3.27082 18.5844 2.30996 19.4628 1.21646 20.1531C1.06154 20.2117 0.914758 20.2896 0.77964 20.385C0.504899 20.5954 0.295287 20.8783 0.174757 21.2014C0.0542278 21.5245 0.0276441 21.8748 0.098044 22.2122C0.172811 22.5451 0.341691 22.8499 0.584838 23.0907C0.827985 23.3316 1.1353 23.4985 1.47065 23.5718V23.5793Z" fill="#EE2C55"/>
<path d="M17.5878 17.0823C16.7688 17.9762 16.0364 18.9356 15.2474 19.8539C14.2045 21.0525 13.0851 22.1832 11.8959 23.2389C10.7944 24.2718 9.57553 25.1737 8.2639 25.9264C6.74632 26.7942 5.19484 27.6788 3.62076 28.4268C3.10064 28.6792 2.5587 28.8845 2.0015 29.0403C1.54034 29.1667 1.14865 29.47 0.912595 29.8833C0.676544 30.2967 0.61547 30.7862 0.742809 31.2443C0.870147 31.7023 1.17547 32.0914 1.5916 32.3259C2.00774 32.5603 2.5006 32.621 2.96176 32.4945C4.80509 31.9465 6.47707 30.9984 8.13964 30.0633C9.54613 29.2703 10.9376 28.5559 12.2292 27.5796C14.7504 25.6777 16.9138 23.4559 18.9058 21.034C19.7147 20.0508 20.5732 19.1089 21.4778 18.2119C21.9693 17.7182 22.4758 17.2487 23.0011 16.7812C23.271 16.5418 23.5446 16.3068 23.822 16.0761C23.9613 15.9564 24.1044 15.8405 24.2494 15.7264C24.2871 15.6927 24.5657 15.4777 24.6354 15.4178C25.8908 14.4629 27.2299 13.6217 28.6365 12.9043C29.9862 12.209 31.4275 11.7054 32.9181 11.4081C33.2649 11.3303 33.6165 11.2753 33.9706 11.2436C34.946 11.1463 35.7725 10.5067 35.7725 9.4538C35.7725 8.55424 34.9516 7.56304 33.9706 7.6659C27.454 8.33916 21.8808 12.3825 17.5897 17.0823H17.5878Z" fill="#EE2C55"/>
<path d="M3.56036 51.3591C7.47483 50.0256 27.5819 42.5692 38.8414 26.8952C38.9789 26.7035 39.077 26.4868 39.1302 26.2574C39.1834 26.0281 39.1905 25.7906 39.1513 25.5585C39.112 25.3264 39.0271 25.1042 38.9014 24.9047C38.7758 24.7052 38.6117 24.5322 38.4187 24.3957C38.2258 24.2591 38.0076 24.1616 37.7767 24.1088C37.5458 24.056 37.3067 24.0489 37.073 24.0879C36.8393 24.1269 36.6157 24.2112 36.4148 24.3361C36.2139 24.4609 36.0398 24.6238 35.9023 24.8155C25.2848 39.5993 6.12294 46.6967 2.38734 47.974C2.30261 48.0021 2.25742 48.0208 2.23859 48.0245C1.8441 48.1729 1.5145 48.454 1.30723 48.8189C1.09997 49.1838 1.02816 49.6094 1.10433 50.0215C1.1805 50.4336 1.39981 50.8061 1.72406 51.0741C2.04831 51.3421 2.45694 51.4886 2.87877 51.4881C3.08737 51.4894 3.29455 51.4539 3.4907 51.3834L3.56036 51.3591Z" fill="#EE2C55"/>
<path d="M27.0059 65.4266C24.5243 66.9845 21.2763 69.2792 17.134 72.2771C16.1738 72.9747 15.3415 73.5732 14.7673 73.979C14.4531 74.1988 14.2177 74.5125 14.0954 74.8744C13.973 75.2363 13.9702 75.6275 14.0872 75.9912C14.2041 76.3548 14.4349 76.6719 14.7458 76.8963C15.0568 77.1206 15.4317 77.2406 15.816 77.2387C16.1884 77.2364 16.5513 77.1223 16.8573 76.9114C17.456 76.4869 18.2958 75.8791 19.2711 75.1722C21.314 73.6854 25.6069 70.5715 28.8078 68.5255C28.128 67.54 27.5256 66.504 27.0059 65.4266Z" fill="#EE2C55"/>
<path d="M42.0088 79.6887C40.9958 79.0341 40.0638 78.3795 39.1619 77.7381C36.2095 75.6397 33.6507 73.8275 30.8509 74.3119C27.699 74.8505 22.6755 79.8682 21.7002 80.8575C21.3661 81.1985 21.1821 81.6574 21.1886 82.1331C21.1952 82.6089 21.3917 83.0626 21.735 83.3944C22.0783 83.7263 22.5403 83.909 23.0193 83.9026C23.4983 83.8961 23.9551 83.7008 24.2891 83.3598C26.703 80.8818 30.126 78.0691 31.461 77.839C32.7959 77.609 34.7673 79.0191 37.0644 80.6443C37.9512 81.2708 38.9472 81.9834 40.0318 82.6828C40.4307 82.9102 40.9021 82.9776 41.3494 82.8712C41.7968 82.7648 42.1863 82.4927 42.4384 82.1105C42.6904 81.7283 42.7859 81.2649 42.7054 80.8151C42.6248 80.3652 42.3743 79.963 42.005 79.6905L42.0088 79.6887Z" fill="#EE2C55"/>
<path d="M28.8227 24.7089C31.7279 21.4024 36.0322 18.2306 39.3855 19.2498C41.3588 19.8539 42.7276 20.918 43.4563 22.4292C44.3243 24.2339 44.2546 26.6726 43.268 29.1207C42.6752 30.5125 41.8948 31.818 40.9483 33.0013C42.5582 32.4785 44.2205 32.1311 45.9059 31.9652C46.1688 31.4719 46.4064 30.9657 46.6176 30.4485C47.9714 27.0822 48.0091 23.5887 46.7042 20.8862C45.5444 18.4681 43.3753 16.7213 40.4418 15.8367C36.1282 14.5276 30.9051 16.9027 26.1189 22.3487C26.0586 22.4179 19.2427 29.5377 12.0878 33.8859C12.037 33.9177 6.80071 37.0409 1.32535 38.5202C0.874061 38.6529 0.492922 38.9556 0.263428 39.3637C0.033934 39.7718 -0.0257005 40.2529 0.097276 40.7041C0.220252 41.1554 0.516079 41.5409 0.921502 41.7783C1.32692 42.0157 1.80976 42.0861 2.26678 41.9745C8.22039 40.3661 13.7165 37.0914 13.9537 36.9474C21.7224 32.2158 28.7662 24.7781 28.8227 24.7089Z" fill="#EE2C55"/>
<path d="M27.3014 44.5235L27.1564 44.6171C22.8729 47.3419 12.0822 54.0334 4.45851 57.2707C4.07663 57.4328 3.76285 57.721 3.57025 58.0865C3.37764 58.4519 3.31805 58.8722 3.40154 59.2763C3.48503 59.6804 3.70648 60.0434 4.02842 60.304C4.35037 60.5646 4.75306 60.7067 5.16835 60.7063C5.41276 60.7065 5.65474 60.6581 5.88007 60.5641C11.9862 57.9758 19.9677 53.3003 25.2773 50.0275C25.7158 48.1155 26.3959 46.2661 27.3014 44.5235Z" fill="#EE2C55"/>
<path d="M24.7013 56.1636C23.4718 56.9472 22.1236 57.8262 20.6456 58.7931C16.1474 61.7405 11.043 65.0788 8.82686 65.6735C8.40009 65.7821 8.02816 66.0422 7.78138 66.4047C7.53461 66.7672 7.43009 67.207 7.48758 67.6408C7.54508 68.0747 7.76061 68.4726 8.09343 68.7593C8.42624 69.046 8.85328 69.2017 9.29381 69.1969C9.45265 69.1971 9.61085 69.1769 9.76453 69.1371C12.5455 68.389 17.4428 65.1798 22.6283 61.7854C23.4529 61.2449 24.3228 60.6801 25.1871 60.1172C24.9135 58.8152 24.751 57.4927 24.7013 56.1636Z" fill="#EE2C55"/>
<path d="M47.7796 75.232C44.1758 75.232 40.653 74.1706 37.6566 72.1819C34.6602 70.1932 32.3249 67.3666 30.9459 64.0595C29.5669 60.7525 29.2061 57.1135 29.9093 53.6028C30.6125 50.0921 32.348 46.8674 34.8964 44.3365C37.4448 41.8055 40.6915 40.082 44.2261 39.3839C47.7606 38.6858 51.4242 39.0445 54.7535 40.4146C58.0829 41.7846 60.9284 44.1046 62.9302 47.081C64.9321 50.0574 66.0004 53.5566 66 57.1361C65.994 61.9339 64.0724 66.5335 60.6567 69.9259C57.2409 73.3183 52.6099 75.2266 47.7796 75.232ZM47.7796 42.096C44.7847 42.0957 41.8569 42.9774 39.3666 44.6298C36.8763 46.2822 34.9352 48.631 33.7888 51.3792C32.6425 54.1274 32.3424 57.1515 32.9264 60.0691C33.5105 62.9867 34.9524 65.6668 37.07 67.7703C39.1876 69.8739 41.8856 71.3065 44.8229 71.887C47.7602 72.4675 50.8049 72.1697 53.5718 71.0315C56.3388 69.8932 58.7037 67.9654 60.3676 65.4921C62.0316 63.0187 62.9197 60.1108 62.9197 57.1361C62.9157 53.1488 61.3193 49.3258 58.4809 46.5062C55.6425 43.6866 51.7939 42.1005 47.7796 42.096Z" fill="#EE2C55"/>
<path d="M59.3441 55.971H46.3994V59.0362H59.3441V55.971Z" fill="#EE2C55"/>
<path d="M49.4366 46.0552H46.3506V59.0231H49.4366V46.0552Z" fill="#EE2C55"/>
<path d="M37.967 36.5356L30.085 42.12L31.877 44.6154L39.759 39.0311L37.967 36.5356Z" fill="#EE2C55"/>
<path d="M57.6339 36.5402L55.8418 39.0357L63.7238 44.62L65.5159 42.1245L57.6339 36.5402Z" fill="#EE2C55"/>
</g>
<defs>
<clipPath id="clip0_36_237">
<rect width="66" height="85" fill="white"/>
</clipPath>
</defs>
</svg>
