<svg width="55" height="80" viewBox="0 0 55 80" fill="none" xmlns="http://www.w3.org/2000/svg">
<g clip-path="url(#clip0_17_782)">
<path d="M49.9482 39.2775C48.6593 39.2775 47.4858 39.766 46.5903 40.5596V37.4798C46.5903 34.3933 44.0871 31.8833 40.9938 31.8833C39.4132 31.8833 37.9886 32.5413 36.971 33.5928C36.4623 31.0218 34.2033 29.0884 31.483 29.0884C29.9567 29.0884 28.5728 29.699 27.5689 30.6894V17.4815C27.5689 14.395 25.0657 11.885 21.9723 11.885C18.879 11.885 16.3758 14.3882 16.3758 17.4815V53.2655L10.7385 47.6282C8.28285 45.1725 4.29405 45.1725 1.83835 47.6282C-0.617341 50.0839 -0.617341 54.0727 1.83835 56.5284L19.1707 73.8607C22.9695 77.6596 28.2133 80.0068 34.0066 80.0068C45.5931 80.0068 54.9885 70.6114 54.9885 59.0248V44.311C54.9885 41.5297 52.7295 39.2775 49.9482 39.2775ZM52.6888 60.5037C52.3429 64.9334 50.4163 69.1122 47.2551 72.2734C43.714 75.8144 39.0062 77.7614 33.9998 77.7614C28.9934 77.7614 24.2856 75.8144 20.7513 72.2734L3.42573 54.9411C1.84514 53.3605 1.84514 50.7894 3.42573 49.2021C5.00633 47.6215 7.57735 47.6215 9.16473 49.2021L16.2401 56.2774C16.5047 56.542 16.8574 56.6845 17.2237 56.6845C17.9971 56.6845 18.6212 56.0536 18.6212 55.2802V17.4815C18.6212 15.6296 20.1272 14.1236 21.9791 14.1236C23.8311 14.1236 25.337 15.6296 25.337 17.4815V47.3637C25.337 48.137 25.9611 48.7679 26.7345 48.7679C27.5078 48.7679 28.1319 48.137 28.1319 47.3637V34.685C28.1319 32.833 29.6379 31.327 31.4898 31.327C33.3418 31.327 34.8478 32.833 34.8478 34.685V45.9459C34.8478 46.7192 35.4719 47.3501 36.2452 47.3501C37.0185 47.3501 37.6426 46.7192 37.6426 45.9459V37.4798C37.6426 35.6279 39.1486 34.1219 41.0006 34.1219C42.8525 34.1219 44.3585 35.6279 44.3585 37.4798V47.3637C44.3585 48.137 44.9826 48.7679 45.7559 48.7679C46.5293 48.7679 47.1534 48.137 47.1534 47.3637V44.311C47.1534 42.7711 48.4083 41.5161 49.9482 41.5161C51.4881 41.5161 52.7431 42.7711 52.7431 44.311L52.6888 60.5037Z" fill="white"/>
<path d="M21.9792 2.23862C22.5973 2.23862 23.0985 1.73748 23.0985 1.11931C23.0985 0.501131 22.5973 0 21.9792 0C21.361 0 20.8599 0.501131 20.8599 1.11931C20.8599 1.73748 21.361 2.23862 21.9792 2.23862Z" fill="white"/>
<path d="M21.9794 5.87467C22.4439 5.87467 22.8205 5.49806 22.8205 5.0335C22.8205 4.56893 22.4439 4.19232 21.9794 4.19232C21.5148 4.19232 21.1382 4.56893 21.1382 5.0335C21.1382 5.49806 21.5148 5.87467 21.9794 5.87467Z" fill="white"/>
<path d="M21.9791 8.80523C22.2863 8.80523 22.5354 8.55618 22.5354 8.24897C22.5354 7.94175 22.2863 7.6927 21.9791 7.6927C21.6719 7.6927 21.4229 7.94175 21.4229 8.24897C21.4229 8.55618 21.6719 8.80523 21.9791 8.80523Z" fill="white"/>
<path d="M25.3781 2.59816C25.9963 2.59816 26.4974 2.09703 26.4974 1.47885C26.4974 0.860674 25.9963 0.359543 25.3781 0.359543C24.7599 0.359543 24.2588 0.860674 24.2588 1.47885C24.2588 2.09703 24.7599 2.59816 25.3781 2.59816Z" fill="white"/>
<path d="M24.5638 6.14602C25.0284 6.14602 25.405 5.76941 25.405 5.30485C25.405 4.84028 25.0284 4.46367 24.5638 4.46367C24.0993 4.46367 23.7227 4.84028 23.7227 5.30485C23.7227 5.76941 24.0993 6.14602 24.5638 6.14602Z" fill="white"/>
<path d="M23.899 9.00873C24.2063 9.00873 24.4553 8.75969 24.4553 8.45247C24.4553 8.14526 24.2063 7.89621 23.899 7.89621C23.5918 7.89621 23.3428 8.14526 23.3428 8.45247C23.3428 8.75969 23.5918 9.00873 23.899 9.00873Z" fill="white"/>
<path d="M28.6339 3.64963C29.2521 3.64963 29.7532 3.1485 29.7532 2.53032C29.7532 1.91214 29.2521 1.41101 28.6339 1.41101C28.0158 1.41101 27.5146 1.91214 27.5146 2.53032C27.5146 3.1485 28.0158 3.64963 28.6339 3.64963Z" fill="white"/>
<path d="M27.0399 6.95327C27.5045 6.95327 27.8811 6.57667 27.8811 6.1121C27.8811 5.64753 27.5045 5.27092 27.0399 5.27092C26.5753 5.27092 26.1987 5.64753 26.1987 6.1121C26.1987 6.57667 26.5753 6.95327 27.0399 6.95327Z" fill="white"/>
<path d="M25.7306 9.6057C26.0378 9.6057 26.2868 9.35666 26.2868 9.04944C26.2868 8.74223 26.0378 8.49318 25.7306 8.49318C25.4234 8.49318 25.1743 8.74223 25.1743 9.04944C25.1743 9.35666 25.4234 9.6057 25.7306 9.6057Z" fill="white"/>
<path d="M31.5988 5.3659C32.217 5.3659 32.7181 4.86476 32.7181 4.24659C32.7181 3.62841 32.217 3.12727 31.5988 3.12727C30.9806 3.12727 30.4795 3.62841 30.4795 4.24659C30.4795 4.86476 30.9806 5.3659 31.5988 5.3659Z" fill="white"/>
<path d="M29.2987 8.25575C29.7633 8.25575 30.1399 7.87914 30.1399 7.41457C30.1399 6.95 29.7633 6.57339 29.2987 6.57339C28.8341 6.57339 28.4575 6.95 28.4575 7.41457C28.4575 7.87914 28.8341 8.25575 29.2987 8.25575Z" fill="white"/>
<path d="M27.4063 10.569C27.7136 10.569 27.9626 10.3199 27.9626 10.0127C27.9626 9.7055 27.7136 9.45645 27.4063 9.45645C27.0991 9.45645 26.8501 9.7055 26.8501 10.0127C26.8501 10.3199 27.0991 10.569 27.4063 10.569Z" fill="white"/>
<path d="M34.1422 7.65199C34.7604 7.65199 35.2615 7.15086 35.2615 6.53268C35.2615 5.91451 34.7604 5.41338 34.1422 5.41338C33.5241 5.41338 33.0229 5.91451 33.0229 6.53268C33.0229 7.15086 33.5241 7.65199 34.1422 7.65199Z" fill="white"/>
<path d="M31.2323 9.99237C31.6969 9.99237 32.0735 9.61576 32.0735 9.15119C32.0735 8.68662 31.6969 8.31001 31.2323 8.31001C30.7677 8.31001 30.3911 8.68662 30.3911 9.15119C30.3911 9.61576 30.7677 9.99237 31.2323 9.99237Z" fill="white"/>
<path d="M28.8375 11.8647C29.1447 11.8647 29.3937 11.6156 29.3937 11.3084C29.3937 11.0012 29.1447 10.7521 28.8375 10.7521C28.5303 10.7521 28.2812 11.0012 28.2812 11.3084C28.2812 11.6156 28.5303 11.8647 28.8375 11.8647Z" fill="white"/>
<path d="M36.1506 10.4197C36.7687 10.4197 37.2699 9.91861 37.2699 9.30043C37.2699 8.68225 36.7687 8.18112 36.1506 8.18112C35.5324 8.18112 35.0312 8.68225 35.0312 9.30043C35.0312 9.91861 35.5324 10.4197 36.1506 10.4197Z" fill="white"/>
<path d="M32.7587 12.1021C33.2233 12.1021 33.5999 11.7255 33.5999 11.2609C33.5999 10.7963 33.2233 10.4197 32.7587 10.4197C32.2941 10.4197 31.9175 10.7963 31.9175 11.2609C31.9175 11.7255 32.2941 12.1021 32.7587 12.1021Z" fill="white"/>
<path d="M29.9703 13.4249C30.2775 13.4249 30.5266 13.1759 30.5266 12.8686C30.5266 12.5614 30.2775 12.3124 29.9703 12.3124C29.6631 12.3124 29.4141 12.5614 29.4141 12.8686C29.4141 13.1759 29.6631 13.4249 29.9703 13.4249Z" fill="white"/>
<path d="M37.5412 13.547C38.1594 13.547 38.6605 13.0459 38.6605 12.4277C38.6605 11.8095 38.1594 11.3084 37.5412 11.3084C36.923 11.3084 36.4219 11.8095 36.4219 12.4277C36.4219 13.0459 36.923 13.547 37.5412 13.547Z" fill="white"/>
<path d="M33.8168 14.4764C34.2813 14.4764 34.6579 14.0998 34.6579 13.6352C34.6579 13.1706 34.2813 12.794 33.8168 12.794C33.3522 12.794 32.9756 13.1706 32.9756 13.6352C32.9756 14.0998 33.3522 14.4764 33.8168 14.4764Z" fill="white"/>
<path d="M30.7574 15.1887C31.0647 15.1887 31.3137 14.9396 31.3137 14.6324C31.3137 14.3252 31.0647 14.0761 30.7574 14.0761C30.4502 14.0761 30.2012 14.3252 30.2012 14.6324C30.2012 14.9396 30.4502 15.1887 30.7574 15.1887Z" fill="white"/>
<path d="M38.2536 16.8914C38.8718 16.8914 39.3729 16.3902 39.3729 15.7721C39.3729 15.1539 38.8718 14.6527 38.2536 14.6527C37.6354 14.6527 37.1343 15.1539 37.1343 15.7721C37.1343 16.3902 37.6354 16.8914 38.2536 16.8914Z" fill="white"/>
<path d="M34.3597 17.0203C34.8243 17.0203 35.2009 16.6437 35.2009 16.1791C35.2009 15.7145 34.8243 15.3379 34.3597 15.3379C33.8952 15.3379 33.5186 15.7145 33.5186 16.1791C33.5186 16.6437 33.8952 17.0203 34.3597 17.0203Z" fill="white"/>
<path d="M31.1578 17.0745C31.465 17.0745 31.7141 16.8255 31.7141 16.5183C31.7141 16.2111 31.465 15.962 31.1578 15.962C30.8506 15.962 30.6016 16.2111 30.6016 16.5183C30.6016 16.8255 30.8506 17.0745 31.1578 17.0745Z" fill="white"/>
<path d="M38.2536 20.3103C38.8718 20.3103 39.3729 19.8092 39.3729 19.191C39.3729 18.5729 38.8718 18.0717 38.2536 18.0717C37.6354 18.0717 37.1343 18.5729 37.1343 19.191C37.1343 19.8092 37.6354 20.3103 38.2536 20.3103Z" fill="white"/>
<path d="M34.3597 19.6252C34.8243 19.6252 35.2009 19.2486 35.2009 18.784C35.2009 18.3194 34.8243 17.9428 34.3597 17.9428C33.8952 17.9428 33.5186 18.3194 33.5186 18.784C33.5186 19.2486 33.8952 19.6252 34.3597 19.6252Z" fill="white"/>
<path d="M31.1578 19.0011C31.465 19.0011 31.7141 18.7521 31.7141 18.4448C31.7141 18.1376 31.465 17.8886 31.1578 17.8886C30.8506 17.8886 30.6016 18.1376 30.6016 18.4448C30.6016 18.7521 30.8506 19.0011 31.1578 19.0011Z" fill="white"/>
<path d="M37.5412 23.6615C38.1594 23.6615 38.6605 23.1604 38.6605 22.5422C38.6605 21.924 38.1594 21.4229 37.5412 21.4229C36.923 21.4229 36.4219 21.924 36.4219 22.5422C36.4219 23.1604 36.923 23.6615 37.5412 23.6615Z" fill="white"/>
<path d="M33.8168 22.1691C34.2813 22.1691 34.6579 21.7925 34.6579 21.3279C34.6579 20.8633 34.2813 20.4867 33.8168 20.4867C33.3522 20.4867 32.9756 20.8633 32.9756 21.3279C32.9756 21.7925 33.3522 22.1691 33.8168 22.1691Z" fill="white"/>
<path d="M30.7574 20.8937C31.0647 20.8937 31.3137 20.6447 31.3137 20.3375C31.3137 20.0303 31.0647 19.7812 30.7574 19.7812C30.4502 19.7812 30.2012 20.0303 30.2012 20.3375C30.2012 20.6447 30.4502 20.8937 30.7574 20.8937Z" fill="white"/>
<path d="M36.1506 26.782C36.7687 26.782 37.2699 26.2809 37.2699 25.6627C37.2699 25.0445 36.7687 24.5434 36.1506 24.5434C35.5324 24.5434 35.0312 25.0445 35.0312 25.6627C35.0312 26.2809 35.5324 26.782 36.1506 26.782Z" fill="white"/>
<path d="M32.7587 24.5501C33.2233 24.5501 33.5999 24.1735 33.5999 23.7089C33.5999 23.2444 33.2233 22.8678 32.7587 22.8678C32.2941 22.8678 31.9175 23.2444 31.9175 23.7089C31.9175 24.1735 32.2941 24.5501 32.7587 24.5501Z" fill="white"/>
<path d="M29.9703 22.6575C30.2775 22.6575 30.5266 22.4084 30.5266 22.1012C30.5266 21.794 30.2775 21.545 29.9703 21.545C29.6631 21.545 29.4141 21.794 29.4141 22.1012C29.4141 22.4084 29.6631 22.6575 29.9703 22.6575Z" fill="white"/>
<path d="M18.5739 2.59816C19.1921 2.59816 19.6932 2.09703 19.6932 1.47885C19.6932 0.860674 19.1921 0.359543 18.5739 0.359543C17.9557 0.359543 17.4546 0.860674 17.4546 1.47885C17.4546 2.09703 17.9557 2.59816 18.5739 2.59816Z" fill="white"/>
<path d="M19.3881 6.14602C19.8526 6.14602 20.2292 5.76941 20.2292 5.30485C20.2292 4.84028 19.8526 4.46367 19.3881 4.46367C18.9235 4.46367 18.5469 4.84028 18.5469 5.30485C18.5469 5.76941 18.9235 6.14602 19.3881 6.14602Z" fill="white"/>
<path d="M20.0597 9.00873C20.3669 9.00873 20.6159 8.75969 20.6159 8.45247C20.6159 8.14526 20.3669 7.89621 20.0597 7.89621C19.7525 7.89621 19.5034 8.14526 19.5034 8.45247C19.5034 8.75969 19.7525 9.00873 20.0597 9.00873Z" fill="white"/>
<path d="M15.3244 3.64963C15.9426 3.64963 16.4437 3.1485 16.4437 2.53032C16.4437 1.91214 15.9426 1.41101 15.3244 1.41101C14.7062 1.41101 14.2051 1.91214 14.2051 2.53032C14.2051 3.1485 14.7062 3.64963 15.3244 3.64963Z" fill="white"/>
<path d="M16.9188 6.95327C17.3834 6.95327 17.76 6.57667 17.76 6.1121C17.76 5.64753 17.3834 5.27092 16.9188 5.27092C16.4542 5.27092 16.0776 5.64753 16.0776 6.1121C16.0776 6.57667 16.4542 6.95327 16.9188 6.95327Z" fill="white"/>
<path d="M18.2213 9.6057C18.5285 9.6057 18.7776 9.35666 18.7776 9.04944C18.7776 8.74223 18.5285 8.49318 18.2213 8.49318C17.9141 8.49318 17.665 8.74223 17.665 9.04944C17.665 9.35666 17.9141 9.6057 18.2213 9.6057Z" fill="white"/>
<path d="M12.36 5.3659C12.9782 5.3659 13.4793 4.86476 13.4793 4.24659C13.4793 3.62841 12.9782 3.12727 12.36 3.12727C11.7419 3.12727 11.2407 3.62841 11.2407 4.24659C11.2407 4.86476 11.7419 5.3659 12.36 5.3659Z" fill="white"/>
<path d="M14.6595 8.25575C15.1241 8.25575 15.5007 7.87914 15.5007 7.41457C15.5007 6.95 15.1241 6.57339 14.6595 6.57339C14.195 6.57339 13.8184 6.95 13.8184 7.41457C13.8184 7.87914 14.195 8.25575 14.6595 8.25575Z" fill="white"/>
<path d="M16.5524 10.569C16.8596 10.569 17.1086 10.3199 17.1086 10.0127C17.1086 9.7055 16.8596 9.45645 16.5524 9.45645C16.2451 9.45645 15.9961 9.7055 15.9961 10.0127C15.9961 10.3199 16.2451 10.569 16.5524 10.569Z" fill="white"/>
<path d="M9.81609 7.65199C10.4343 7.65199 10.9354 7.15086 10.9354 6.53268C10.9354 5.91451 10.4343 5.41338 9.81609 5.41338C9.19791 5.41338 8.69678 5.91451 8.69678 6.53268C8.69678 7.15086 9.19791 7.65199 9.81609 7.65199Z" fill="white"/>
<path d="M12.7264 9.99237C13.191 9.99237 13.5676 9.61576 13.5676 9.15119C13.5676 8.68662 13.191 8.31001 12.7264 8.31001C12.2619 8.31001 11.8853 8.68662 11.8853 9.15119C11.8853 9.61576 12.2619 9.99237 12.7264 9.99237Z" fill="white"/>
<path d="M15.1212 11.8647C15.4284 11.8647 15.6775 11.6156 15.6775 11.3084C15.6775 11.0012 15.4284 10.7521 15.1212 10.7521C14.814 10.7521 14.5649 11.0012 14.5649 11.3084C14.5649 11.6156 14.814 11.8647 15.1212 11.8647Z" fill="white"/>
<path d="M7.80827 10.4197C8.42645 10.4197 8.92758 9.91861 8.92758 9.30043C8.92758 8.68225 8.42645 8.18112 7.80827 8.18112C7.1901 8.18112 6.68896 8.68225 6.68896 9.30043C6.68896 9.91861 7.1901 10.4197 7.80827 10.4197Z" fill="white"/>
<path d="M11.2001 12.1021C11.6646 12.1021 12.0412 11.7255 12.0412 11.2609C12.0412 10.7963 11.6646 10.4197 11.2001 10.4197C10.7355 10.4197 10.3589 10.7963 10.3589 11.2609C10.3589 11.7255 10.7355 12.1021 11.2001 12.1021Z" fill="white"/>
<path d="M13.9879 13.4249C14.2951 13.4249 14.5442 13.1759 14.5442 12.8686C14.5442 12.5614 14.2951 12.3124 13.9879 12.3124C13.6807 12.3124 13.4316 12.5614 13.4316 12.8686C13.4316 13.1759 13.6807 13.4249 13.9879 13.4249Z" fill="white"/>
<path d="M6.41765 13.547C7.03583 13.547 7.53696 13.0459 7.53696 12.4277C7.53696 11.8095 7.03583 11.3084 6.41765 11.3084C5.79947 11.3084 5.29834 11.8095 5.29834 12.4277C5.29834 13.0459 5.79947 13.547 6.41765 13.547Z" fill="white"/>
<path d="M10.142 14.4764C10.6065 14.4764 10.9831 14.0998 10.9831 13.6352C10.9831 13.1706 10.6065 12.794 10.142 12.794C9.67739 12.794 9.30078 13.1706 9.30078 13.6352C9.30078 14.0998 9.67739 14.4764 10.142 14.4764Z" fill="white"/>
<path d="M13.2013 15.1887C13.5085 15.1887 13.7575 14.9396 13.7575 14.6324C13.7575 14.3252 13.5085 14.0761 13.2013 14.0761C12.8941 14.0761 12.645 14.3252 12.645 14.6324C12.645 14.9396 12.8941 15.1887 13.2013 15.1887Z" fill="white"/>
<path d="M5.70525 16.8914C6.32342 16.8914 6.82455 16.3902 6.82455 15.7721C6.82455 15.1539 6.32342 14.6527 5.70525 14.6527C5.08707 14.6527 4.58594 15.1539 4.58594 15.7721C4.58594 16.3902 5.08707 16.8914 5.70525 16.8914Z" fill="white"/>
<path d="M9.59899 17.0203C10.0636 17.0203 10.4402 16.6437 10.4402 16.1791C10.4402 15.7145 10.0636 15.3379 9.59899 15.3379C9.13442 15.3379 8.75781 15.7145 8.75781 16.1791C8.75781 16.6437 9.13442 17.0203 9.59899 17.0203Z" fill="white"/>
<path d="M12.8009 17.0745C13.1081 17.0745 13.3572 16.8255 13.3572 16.5183C13.3572 16.2111 13.1081 15.962 12.8009 15.962C12.4937 15.962 12.2446 16.2111 12.2446 16.5183C12.2446 16.8255 12.4937 17.0745 12.8009 17.0745Z" fill="white"/>
<path d="M5.70525 20.3103C6.32342 20.3103 6.82455 19.8092 6.82455 19.191C6.82455 18.5729 6.32342 18.0717 5.70525 18.0717C5.08707 18.0717 4.58594 18.5729 4.58594 19.191C4.58594 19.8092 5.08707 20.3103 5.70525 20.3103Z" fill="white"/>
<path d="M9.59899 19.6252C10.0636 19.6252 10.4402 19.2486 10.4402 18.784C10.4402 18.3194 10.0636 17.9428 9.59899 17.9428C9.13442 17.9428 8.75781 18.3194 8.75781 18.784C8.75781 19.2486 9.13442 19.6252 9.59899 19.6252Z" fill="white"/>
<path d="M12.8009 19.0011C13.1081 19.0011 13.3572 18.7521 13.3572 18.4448C13.3572 18.1376 13.1081 17.8886 12.8009 17.8886C12.4937 17.8886 12.2446 18.1376 12.2446 18.4448C12.2446 18.7521 12.4937 19.0011 12.8009 19.0011Z" fill="white"/>
<path d="M6.41765 23.6615C7.03583 23.6615 7.53696 23.1604 7.53696 22.5422C7.53696 21.924 7.03583 21.4229 6.41765 21.4229C5.79947 21.4229 5.29834 21.924 5.29834 22.5422C5.29834 23.1604 5.79947 23.6615 6.41765 23.6615Z" fill="white"/>
<path d="M10.142 22.1691C10.6065 22.1691 10.9831 21.7925 10.9831 21.3279C10.9831 20.8633 10.6065 20.4867 10.142 20.4867C9.67739 20.4867 9.30078 20.8633 9.30078 21.3279C9.30078 21.7925 9.67739 22.1691 10.142 22.1691Z" fill="white"/>
<path d="M13.2013 20.8937C13.5085 20.8937 13.7575 20.6447 13.7575 20.3375C13.7575 20.0303 13.5085 19.7812 13.2013 19.7812C12.8941 19.7812 12.645 20.0303 12.645 20.3375C12.645 20.6447 12.8941 20.8937 13.2013 20.8937Z" fill="white"/>
<path d="M7.80827 26.782C8.42645 26.782 8.92758 26.2809 8.92758 25.6627C8.92758 25.0445 8.42645 24.5434 7.80827 24.5434C7.1901 24.5434 6.68896 25.0445 6.68896 25.6627C6.68896 26.2809 7.1901 26.782 7.80827 26.782Z" fill="white"/>
<path d="M11.2001 24.5501C11.6646 24.5501 12.0412 24.1735 12.0412 23.7089C12.0412 23.2444 11.6646 22.8678 11.2001 22.8678C10.7355 22.8678 10.3589 23.2444 10.3589 23.7089C10.3589 24.1735 10.7355 24.5501 11.2001 24.5501Z" fill="white"/>
<path d="M13.9879 22.6575C14.2951 22.6575 14.5442 22.4084 14.5442 22.1012C14.5442 21.794 14.2951 21.545 13.9879 21.545C13.6807 21.545 13.4316 21.794 13.4316 22.1012C13.4316 22.4084 13.6807 22.6575 13.9879 22.6575Z" fill="white"/>
</g>
<defs>
<clipPath id="clip0_17_782">
<rect width="54.9885" height="80" fill="white"/>
</clipPath>
</defs>
</svg>
