<svg width="27" height="24" viewBox="0 0 27 24" fill="none" xmlns="http://www.w3.org/2000/svg">
<path d="M13.1181 5.09174C12.5406 5.09174 12.0786 5.55371 12.0786 6.13118V12.7143C12.0786 13.0608 12.2519 13.465 12.5983 13.6382L16.0631 15.4284C16.1786 15.4861 16.3519 15.5439 16.5251 15.5439C16.8716 15.5439 17.2181 15.3706 17.449 15.0242C17.68 14.5044 17.5068 13.927 17.0448 13.6382L14.1575 12.1368V6.13118C14.1575 5.49596 13.6955 5.09174 13.1181 5.09174Z" fill="#EE2A54"/>
<path d="M0.182916 14.3312C-0.163563 14.8509 0.00967661 15.4862 0.47165 15.7749L4.10969 17.9693C4.39842 18.0847 4.62941 18.1425 4.91814 18.0847C5.20687 18.027 5.43786 17.8538 5.55335 17.6228L7.74772 13.9847C8.03646 13.5228 7.86322 12.8298 7.40124 12.5411C6.93927 12.2523 6.24631 12.4256 5.95758 12.8876L5.03363 14.389C3.8787 9.13402 7.17026 3.76359 12.4829 2.43542C17.8534 1.10724 23.2816 4.3988 24.6675 9.76924C25.9957 15.1397 22.7041 20.5679 17.3337 21.9538C16.7562 22.0693 16.4675 22.6467 16.583 23.2242C16.6985 23.8017 17.2759 24.0904 17.8534 23.9749C24.2633 22.3003 28.2478 15.7171 26.6309 9.24952C25.014 2.78189 18.4308 -1.26037 11.9632 0.356537C5.55335 1.97344 1.56884 8.44106 3.12799 14.9087L1.62658 13.9847C1.10686 13.696 0.47165 13.8692 0.182916 14.3312Z" fill="#EE2A54"/>
<path d="M8.09426 18.8932C7.63229 18.489 6.93933 18.489 6.5351 18.8932C6.13088 19.3552 6.13088 20.0481 6.5351 20.4524C6.99708 20.8566 7.69004 20.8566 8.09426 20.4524C8.55623 20.0481 8.55623 19.3552 8.09426 18.8932Z" fill="#EE2A54"/>
<path d="M10.9816 20.8566C10.4041 20.6256 9.7689 20.8566 9.48016 21.3763C9.24918 21.9538 9.48016 22.589 9.99988 22.8777C10.5773 23.1087 11.2126 22.8777 11.5013 22.358C11.79 21.7805 11.5013 21.1453 10.9816 20.8566Z" fill="#EE2A54"/>
<path d="M15.3125 22.9354C15.3703 22.358 14.9083 21.7805 14.3308 21.7227C13.7534 21.665 13.1759 22.127 13.1182 22.7044C13.0604 23.2819 13.5224 23.8594 14.0999 23.9171C14.7351 24.0326 15.2548 23.5706 15.3125 22.9354Z" fill="#EE2A54"/>
</svg>
