<svg width="26" height="24" viewBox="0 0 26 24" fill="none" xmlns="http://www.w3.org/2000/svg">
<path d="M11.0847 4.50734C10.5127 4.50734 10.0552 4.96489 10.0552 5.53682V12.1141C10.0552 12.4572 10.2268 12.8576 10.5699 13.0292L14.0015 14.8022C14.1159 14.8594 14.2875 14.9166 14.4591 14.9166C14.8022 14.9166 15.1454 14.745 15.3742 14.4018C15.6029 13.8871 15.4314 13.3151 14.9738 13.0292L12.1141 11.5421V5.59402C12.1141 4.96489 11.6566 4.50734 11.0847 4.50734Z" fill="#EE2A54"/>
<path d="M25.0397 18.8628C25.6116 18.634 25.8404 18.0621 25.6688 17.4902L24.0102 13.601C23.8958 13.315 23.7242 13.1435 23.4383 13.0291C23.1523 12.9147 22.9235 12.9147 22.6376 13.0291L18.7484 14.6305C18.2337 14.8593 18.0049 15.4312 18.1765 15.9459C18.4053 16.4607 18.9772 16.6895 19.4919 16.5179L21.0933 15.8315C18.9772 20.8074 13.2006 23.1523 8.16762 21.0933C3.19179 19.0916 0.732465 13.2578 2.79143 8.22481C4.8504 3.19179 10.7413 0.675272 15.7744 2.79143C16.2891 3.02021 16.9182 2.73424 17.0898 2.2195C17.3186 1.70475 17.0326 1.07563 16.5179 0.904046C10.4554 -1.61247 3.42056 1.3044 0.904046 7.4241C-1.61247 13.5438 1.3044 20.5786 7.4241 23.0951C13.4866 25.6116 20.4642 22.6948 23.0379 16.6323L23.6671 18.2337C23.8958 18.8056 24.525 19.0916 25.0397 18.8628Z" fill="#EE2A54"/>
<path d="M21.3793 10.5698C21.4937 11.1418 22.0657 11.5993 22.6376 11.4849C23.2095 11.3706 23.6671 10.7986 23.5527 10.2267C23.4383 9.65475 22.8664 9.1972 22.2944 9.31159C21.6653 9.36878 21.265 9.94072 21.3793 10.5698Z" fill="#EE2A54"/>
<path d="M20.2355 7.30983C20.5214 7.88176 21.2077 8.05334 21.7225 7.76738C22.2944 7.48141 22.466 6.79509 22.18 6.28034C21.8941 5.70841 21.2077 5.53683 20.693 5.8228C20.1211 6.10876 19.9495 6.79509 20.2355 7.30983Z" fill="#EE2A54"/>
<path d="M17.9474 3.07735C17.5471 3.5349 17.6043 4.22122 18.0618 4.62158C18.5194 5.02193 19.2057 4.96474 19.606 4.50719C20.0064 4.04964 19.9492 3.36332 19.4916 2.96297C19.0913 2.61981 18.3478 2.677 17.9474 3.07735Z" fill="#EE2A54"/>
</svg>
