<svg width="24" height="25" viewBox="0 0 24 25" fill="none" xmlns="http://www.w3.org/2000/svg">
<path d="M11.5197 2C11.4038 2 11.2926 2.04263 11.2065 2.11998L2.15527 10.2529C2.10611 10.2972 2.06753 10.3502 2.0406 10.4106C2.01367 10.471 2.00002 10.5352 2 10.6009V22.2119C2 22.3371 2.04875 22.4548 2.13727 22.5433C2.2258 22.6318 2.34349 22.6806 2.46868 22.6806H5.76026C5.88545 22.6806 6.00314 22.6318 6.09165 22.5433C6.18018 22.4548 6.22894 22.3371 6.22894 22.2119V15.6287C6.22894 14.8747 6.52257 14.1658 7.05578 13.6326C7.58896 13.0995 8.29784 12.8058 9.05183 12.8058H13.9892C14.7432 12.8058 15.4521 13.0995 15.9853 13.6327C16.5184 14.1658 16.8121 14.8747 16.8121 15.6287V22.2119C16.8121 22.3371 16.8608 22.4548 16.9494 22.5433C17.0379 22.6318 17.1556 22.6806 17.2808 22.6806H20.5723C20.6975 22.6806 20.8152 22.6318 20.9037 22.5433C20.9923 22.4548 21.041 22.3371 21.041 22.2119V10.6013C21.041 10.5352 21.0273 10.471 21.0004 10.4106C20.9735 10.3502 20.9349 10.2972 20.8863 10.2535L11.8329 2.12005C11.7468 2.04263 11.6355 2 11.5197 2ZM11.5197 0C12.1288 0 12.7165 0.22521 13.1696 0.63232H13.1712L22.2231 8.7658C22.4804 8.99724 22.6862 9.28022 22.8272 9.59635C22.9681 9.91249 23.0409 10.2547 23.041 10.6009V22.2119C23.041 22.8666 22.7809 23.4945 22.3179 23.9575C21.855 24.4205 21.2271 24.6806 20.5723 24.6806H17.2808C16.626 24.6806 15.9981 24.4205 15.5351 23.9575C15.0722 23.4945 14.8121 22.8666 14.8121 22.2119V15.6287C14.8121 15.4105 14.7254 15.2012 14.5711 15.0469C14.4167 14.8925 14.2074 14.8058 13.9892 14.8058H9.05183C8.83358 14.8058 8.62428 14.8925 8.46995 15.0469C8.31563 15.2012 8.22894 15.4105 8.22894 15.6287V22.2119C8.22894 22.8666 7.96884 23.4945 7.50588 23.9575C7.04291 24.4205 6.41499 24.6806 5.76026 24.6806H2.46868C1.81395 24.6806 1.18603 24.4205 0.723061 23.9575C0.26009 23.4945 0 22.8666 0 22.2119V10.6009C8.01086e-05 10.2547 0.0729389 9.91249 0.21386 9.59635C0.354771 9.28022 0.560589 8.99724 0.817959 8.7658L9.86978 0.63232C10.3229 0.22521 10.9105 0 11.5197 0Z" fill="#232323"/>
</svg>
