<svg width="24" height="24" viewBox="0 0 24 24" fill="none" xmlns="http://www.w3.org/2000/svg">
<path d="M12 24C5.36986 24 0 18.6301 0 12C0 5.36986 5.36986 0 12 0C18.6301 0 24 5.36986 24 12C24 18.6301 18.6301 24 12 24ZM12 1.91781C6.46575 1.91781 1.9726 6.41096 1.9726 11.9452C1.9726 17.4795 6.46575 21.9726 12 21.9726C17.5342 21.9726 22.0274 17.4795 22.0274 11.9452C22.0274 6.46575 17.5342 1.91781 12 1.91781Z" fill="#EE2A54"/>
<path d="M12 19.0685C11.452 19.0685 11.0137 18.6301 11.0137 18.0822V11.9452L12.7123 5.9178C12.7123 5.36986 13.1507 4.9315 13.6986 4.9315C14.2465 4.9315 14.6849 5.36986 14.6849 5.9178L12.9863 12.0548V18.0822C12.9863 18.6301 12.5479 19.0685 12 19.0685Z" fill="#EE2A54"/>
</svg>
