<svg width="32" height="29" viewBox="0 0 32 29" fill="none" xmlns="http://www.w3.org/2000/svg">
<path d="M1.51472 18.3242C1.56958 18.3117 1.62549 18.307 1.67553 18.307L15.557 18.3049C15.9599 18.3049 16.2906 18.6103 16.3313 19.0029L17.7485 26.7503H23.2595C23.6882 26.7503 24.0369 27.0989 24.0369 27.5277C24.0369 27.9564 23.6882 28.3051 23.2595 28.3051H17.1038H17.0038V28.2965C16.6781 28.2541 16.4046 28.0072 16.3408 27.6686L16.3407 27.6681L14.9123 19.8618H2.6369L4.23813 27.3675C4.23813 27.3675 4.23814 27.3675 4.23814 27.3675C4.32783 27.787 4.05866 28.1986 3.64002 28.2881C3.2205 28.3778 2.80895 28.1086 2.71941 27.69L2.7194 27.6899L0.917227 19.2446L1.01501 19.2237L0.917217 19.2446C0.827568 18.8253 1.09643 18.414 1.51472 18.3242ZM1.51472 18.3242C1.51492 18.3241 1.51513 18.3241 1.51534 18.324L1.53625 18.4218L1.51409 18.3243C1.5143 18.3242 1.51451 18.3242 1.51472 18.3242ZM18.0777 3.15078L18.0778 3.15065C18.6632 2.56319 19.4758 2.20089 20.3705 2.20089C21.2673 2.20089 22.0778 2.56317 22.6632 3.15065L22.6634 3.1509C23.2509 3.73634 23.6132 4.54678 23.6132 5.44358C23.6132 6.3382 23.251 7.14873 22.6633 7.73638L22.6632 7.73651C22.0778 8.32397 21.2652 8.68626 20.3705 8.68626C19.4759 8.68626 18.6654 8.32403 18.0777 7.73638L18.0776 7.73626C17.4901 7.15084 17.1278 6.3383 17.1278 5.44358C17.1278 4.54896 17.4901 3.73843 18.0777 3.15078ZM15.3306 13.9902L15.3306 13.9902C16.5399 13.2897 17.9429 12.8874 19.4378 12.8874H21.3011C23.5672 12.8874 25.6271 13.8149 27.1223 15.3102C28.6176 16.8055 29.5452 18.8654 29.5452 21.1314V27.5277C29.5452 27.9564 29.8939 28.3051 30.3226 28.3051C30.7513 28.3051 31.1 27.9564 31.1 27.5277V21.1314C31.1 18.4362 29.9975 15.9864 28.2218 14.2107C26.4461 12.435 23.9963 11.3326 21.3011 11.3326H19.4378C17.6659 11.3326 15.9942 11.8123 14.5529 12.6481C13.0607 13.5115 11.8157 14.7565 10.9523 16.2488L10.9522 16.249C10.7391 16.6195 10.8649 17.0941 11.2355 17.3096L11.2359 17.3099C11.6064 17.523 12.081 17.3971 12.2965 17.0265L12.2966 17.0264C13.0244 15.7689 14.0733 14.7179 15.3306 13.9902ZM25.5251 20.4245V27.5298C25.5251 27.9585 25.8738 28.3072 26.3025 28.3072C26.7313 28.3072 27.0799 27.9585 27.0799 27.5298V20.4245C27.0799 19.9957 26.7313 19.6471 26.3025 19.6471C25.874 19.6471 25.5251 19.9934 25.5251 20.4245ZM20.3705 0.646094C19.0451 0.646094 17.8466 1.18286 16.9782 2.05129C16.1098 2.91971 15.573 4.11817 15.573 5.44358C15.573 6.76899 16.1098 7.96745 16.9782 8.83587C17.8466 9.7043 19.0451 10.2411 20.3705 10.2411C21.6959 10.2411 22.8944 9.7043 23.7628 8.83587C24.6312 7.96745 25.168 6.76899 25.168 5.44358C25.168 4.11817 24.6312 2.91971 23.7628 2.05129C22.8944 1.18286 21.6959 0.646094 20.3705 0.646094Z" fill="black" stroke="black" stroke-width="0.2"/>
</svg>
