<svg width="24" height="23" viewBox="0 0 24 23" fill="none" xmlns="http://www.w3.org/2000/svg">
<path d="M21.486 17.3837H19.5643C19.4331 17.3837 19.3101 17.4399 19.2281 17.5388C19.0368 17.7662 18.8318 17.9855 18.6158 18.1941C17.7326 19.0591 16.6864 19.7484 15.5352 20.224C14.3424 20.7169 13.0604 20.9697 11.7656 20.9674C10.4563 20.9674 9.18794 20.7161 7.99613 20.224C6.84485 19.7484 5.79868 19.0591 4.91546 18.1941C4.03067 17.332 3.32515 16.3102 2.83799 15.1854C2.33229 14.0193 2.07808 12.7811 2.07808 11.5C2.07808 10.219 2.33503 8.98072 2.83799 7.81468C3.32456 6.68875 4.02434 5.67515 4.91546 4.80596C5.80659 3.93678 6.84259 3.25213 7.99613 2.77608C9.18794 2.28399 10.4563 2.03259 11.7656 2.03259C13.075 2.03259 14.3433 2.28132 15.5352 2.77608C16.6887 3.25213 17.7247 3.93678 18.6158 4.80596C18.8318 5.01724 19.034 5.23654 19.2281 5.46119C19.3101 5.56015 19.4359 5.61631 19.5643 5.61631H21.486C21.6582 5.61631 21.7648 5.4291 21.6691 5.28736C19.5725 2.09946 15.9042 -0.0106572 11.7356 4.04871e-05C5.18608 0.016087 -0.0649962 5.21782 0.000608082 11.6177C0.0662123 17.9159 5.30909 23 11.7656 23C15.9233 23 19.5753 20.8926 21.6691 17.7127C21.7621 17.5709 21.6582 17.3837 21.486 17.3837ZM23.9161 11.3315L20.0372 8.33619C19.8924 8.22386 19.6819 8.32549 19.6819 8.50468V10.5372H11.0987C10.9784 10.5372 10.88 10.6335 10.88 10.7512V12.2489C10.88 12.3665 10.9784 12.4628 11.0987 12.4628H19.6819V14.4954C19.6819 14.6745 19.8951 14.7762 20.0372 14.6639L23.9161 11.6685C23.9422 11.6485 23.9634 11.6229 23.9779 11.5937C23.9924 11.5645 24 11.5325 24 11.5C24 11.4675 23.9924 11.4355 23.9779 11.4063C23.9634 11.3771 23.9422 11.3515 23.9161 11.3315Z" fill="#323C4A"/>
</svg>
