<svg width="24" height="28" viewBox="0 0 24 28" fill="none" xmlns="http://www.w3.org/2000/svg">
<path d="M11.9969 12.1164C11.4872 12.1164 11.0645 11.6937 11.0645 11.1839V7.04386C11.0645 6.53413 11.4872 6.11142 11.9969 6.11142C12.5066 6.11142 12.9293 6.53413 12.9293 7.04386V11.1839C12.9293 11.7061 12.5066 12.1164 11.9969 12.1164Z" fill="#686868"/>
<path d="M12.0214 24.3376C8.81382 24.3376 5.61864 23.8279 2.57265 22.8084C1.44129 22.4354 0.583438 21.6273 0.21046 20.6078C-0.162518 19.5883 -0.0381916 18.4197 0.571006 17.4002L2.14995 14.7645C2.49806 14.1802 2.80887 13.0861 2.80887 12.4023V9.79144C2.80887 4.70651 6.9365 0.578888 12.0214 0.578888C17.1064 0.578888 21.234 4.70651 21.234 9.79144V12.4023C21.234 13.0737 21.5448 14.1802 21.8929 14.7645L23.4719 17.4002C24.0562 18.3699 24.1556 19.5262 23.7702 20.5829C23.3848 21.6397 22.5394 22.4478 21.4702 22.8084C18.4242 23.8403 15.229 24.3376 12.0214 24.3376ZM12.0214 2.45621C7.9684 2.45621 4.67376 5.75085 4.67376 9.80388V12.4147C4.67376 13.4218 4.27592 14.8764 3.75375 15.7342L2.17481 18.3824C1.85156 18.917 1.77697 19.4889 1.96346 19.9862C2.14995 20.4835 2.57265 20.8565 3.16942 21.0554C8.88841 22.9576 15.1793 22.9576 20.8983 21.0554C21.4329 20.8813 21.8432 20.4835 22.0297 19.9613C22.2286 19.4391 22.1664 18.8672 21.8805 18.3824L20.3015 15.7467C19.7794 14.8888 19.3815 13.4342 19.3815 12.4272V9.81631C19.3691 5.75085 16.0745 2.45621 12.0214 2.45621Z" fill="#686868"/>
<path d="M11.9968 27.5079C10.6665 27.5079 9.36111 26.9609 8.41623 26.016C7.47135 25.0711 6.92432 23.7657 6.92432 22.4354H8.78921C8.78921 23.2808 9.13732 24.1014 9.73408 24.6982C10.3308 25.2949 11.1514 25.643 11.9968 25.643C13.7622 25.643 15.2044 24.2009 15.2044 22.4354H17.0693C17.0693 25.2328 14.7942 27.5079 11.9968 27.5079Z" fill="#686868"/>
</svg>
