<svg width="176" height="196" viewBox="0 0 176 196" fill="none" xmlns="http://www.w3.org/2000/svg">
<path d="M88 187.66C131.972 187.66 167.619 152.185 167.619 108.426C167.619 64.6658 131.972 29.1915 88 29.1915C44.0276 29.1915 8.38098 64.6658 8.38098 108.426C8.38098 152.185 44.0276 187.66 88 187.66Z" fill="white" stroke="#F0F0F0" stroke-width="8"/>
<path d="M123.41 47.9574C123.375 47.9562 123.341 47.9475 123.311 47.932C123.28 47.9165 123.253 47.8946 123.231 47.8677C122.232 46.7626 123.397 35.5657 123.41 35.4468H120.476C118.253 35.4468 116.122 34.5681 114.55 33.004C112.978 31.4398 112.095 29.3184 112.095 27.1064V8.34043C112.095 6.12841 112.978 4.00698 114.55 2.44285C116.122 0.878715 118.253 0 120.476 0H158.19C160.413 0 162.545 0.878715 164.117 2.44285C165.688 4.00698 166.571 6.12841 166.571 8.34043V27.1064C166.571 29.3184 165.688 31.4398 164.117 33.004C162.545 34.5681 160.413 35.4468 158.19 35.4468H135.572V35.4593C134.558 36.7374 125.656 47.9574 123.41 47.9574ZM152.952 12.5106C151.916 12.5106 150.904 12.8164 150.042 13.3891C149.181 13.9619 148.509 14.776 148.113 15.7285C147.717 16.681 147.613 17.7292 147.815 18.7404C148.017 19.7516 148.516 20.6804 149.248 21.4094C149.981 22.1384 150.914 22.6349 151.93 22.836C152.947 23.0371 154 22.9339 154.957 22.5394C155.914 22.1448 156.732 21.4767 157.308 20.6194C157.883 19.7622 158.19 18.7544 158.19 17.7234C158.19 16.3409 157.639 15.015 156.656 14.0374C155.674 13.0599 154.342 12.5106 152.952 12.5106ZM140.381 12.5106C139.345 12.5106 138.332 12.8164 137.471 13.3891C136.609 13.9619 135.938 14.776 135.542 15.7285C135.145 16.681 135.041 17.7292 135.243 18.7404C135.446 19.7516 135.944 20.6804 136.677 21.4094C137.41 22.1384 138.343 22.6349 139.359 22.836C140.375 23.0371 141.428 22.9339 142.385 22.5394C143.343 22.1448 144.161 21.4767 144.736 20.6194C145.312 19.7622 145.619 18.7544 145.619 17.7234C145.619 16.3409 145.067 15.015 144.085 14.0374C143.102 13.0599 141.77 12.5106 140.381 12.5106ZM127.809 12.5106C126.774 12.5106 125.761 12.8164 124.899 13.3891C124.038 13.9619 123.367 14.776 122.97 15.7285C122.574 16.681 122.47 17.7292 122.672 18.7404C122.874 19.7516 123.373 20.6804 124.106 21.4094C124.838 22.1384 125.771 22.6349 126.788 22.836C127.804 23.0371 128.857 22.9339 129.814 22.5394C130.771 22.1448 131.589 21.4767 132.165 20.6194C132.74 19.7622 133.048 18.7544 133.048 17.7234C133.048 16.3409 132.496 15.015 131.513 14.0374C130.531 13.0599 129.199 12.5106 127.809 12.5106Z" fill="#EE2A54"/>
<path d="M108.898 64.6383H66C63.6857 64.6383 61.8096 66.5054 61.8096 68.8085V148.043C61.8096 150.346 63.6857 152.213 66 152.213H108.898C111.212 152.213 113.088 150.346 113.088 148.043V68.8085C113.088 66.5054 111.212 64.6383 108.898 64.6383Z" stroke="#2F2F7E" stroke-width="1.5" stroke-linecap="round" stroke-linejoin="round"/>
<path d="M88.8947 130.759H86.0033C85.2627 130.759 84.6624 131.357 84.6624 132.094V134.971C84.6624 135.708 85.2627 136.305 86.0033 136.305H88.8947C89.6353 136.305 90.2357 135.708 90.2357 134.971V132.094C90.2357 131.357 89.6353 130.759 88.8947 130.759Z" stroke="#2F2F7E" stroke-width="1.5" stroke-linecap="round" stroke-linejoin="round"/>
<path d="M87.4489 108.428C94.5655 108.428 100.335 102.686 100.335 95.6042C100.335 88.522 94.5655 82.7808 87.4489 82.7808C80.3324 82.7808 74.5632 88.522 74.5632 95.6042C74.5632 102.686 80.3324 108.428 87.4489 108.428Z" fill="#EE2A54"/>
<path d="M81.5928 96.5154L84.8132 99.8161L95.9368 89.622L96.7749 89.8639L84.7964 102.375L79.0659 98.5525L81.5928 96.5154Z" fill="white"/>
</svg>
