<svg width="21" height="29" viewBox="0 0 21 29" fill="none" xmlns="http://www.w3.org/2000/svg">
<path d="M10.8004 13.1935C10.663 13.1798 10.4983 13.1798 10.3472 13.1935C7.07913 13.0836 4.48389 10.4029 4.48389 7.10365C4.48389 3.73564 7.20272 1 10.5807 1C13.9449 1 16.6774 3.73564 16.6774 7.10365C16.6637 10.4029 14.0685 13.0836 10.8004 13.1935Z" stroke="#686868" stroke-width="1.5" stroke-linecap="round" stroke-linejoin="round"/>
<path d="M3.54969 18.4797C0.150104 20.607 0.150104 24.0737 3.54969 26.1879C7.41285 28.6041 13.7484 28.6041 17.6116 26.1879C21.0112 24.0606 21.0112 20.5939 17.6116 18.4797C13.7625 16.0767 7.4269 16.0767 3.54969 18.4797Z" stroke="#686868" stroke-width="1.5" stroke-linecap="round" stroke-linejoin="round"/>
</svg>
