<svg width="21" height="21" viewBox="0 0 21 21" fill="none" xmlns="http://www.w3.org/2000/svg">
<path d="M13.7032 2.58945C10.5727 -0.540233 5.47774 -0.540233 2.34731 2.58945C-0.782437 5.71981 -0.782437 10.8129 2.34731 13.9433C5.13504 16.7297 9.47679 17.0282 12.6052 14.8524C12.671 15.1638 12.8217 15.461 13.0639 15.7032L17.6228 20.261C18.2872 20.9238 19.3607 20.9238 20.0217 20.261C20.6854 19.5975 20.6854 18.5242 20.0217 17.8627L15.4628 13.3035C15.2219 13.0633 14.924 12.912 14.6125 12.8462C16.7902 9.71791 16.4916 5.37787 13.7032 2.58945ZM12.2638 12.5043C9.92671 14.8409 6.1231 14.8409 3.78664 12.5043C1.45087 10.1677 1.45087 6.36569 3.78664 4.02912C6.1231 1.69322 9.92671 1.69322 12.2638 4.02912C14.601 6.36569 14.601 10.1677 12.2638 12.5043Z" fill="#323C4A"/>
</svg>
