<svg width="33" height="33" viewBox="0 0 33 33" fill="none" xmlns="http://www.w3.org/2000/svg">
<path d="M16.016 31.031C18.9859 31.031 21.8892 30.1503 24.3585 28.5003C26.8279 26.8503 28.7526 24.505 29.8891 21.7612C31.0256 19.0173 31.3229 15.998 30.7434 13.0852C30.1639 10.1723 28.7337 7.49675 26.6336 5.39676C24.5334 3.29678 21.8577 1.86672 18.9449 1.28744C16.032 0.708154 13.0127 1.00566 10.2689 2.14234C7.52513 3.27902 5.18003 5.20381 3.53017 7.67332C1.88031 10.1428 0.999802 13.0461 1 16.016C1.00027 19.9983 2.58242 23.8175 5.39844 26.6333C8.21446 29.4491 12.0337 31.031 16.016 31.031V31.031Z" stroke="white" stroke-width="2" stroke-linecap="round" stroke-linejoin="round"/>
<path d="M16.0161 9.008V18.017L20.5161 22.517" stroke="white" stroke-width="2" stroke-linecap="round" stroke-linejoin="round"/>
</svg>
